<svg width="10" height="12" viewBox="0 0 10 12" fill="none" xmlns="http://www.w3.org/2000/svg">
<g clip-path="url(#clip0_0_2152)">
<path d="M9.42341 2.40463C9.38555 2.39995 9.34738 2.39995 9.30952 2.40463H1.53174C1.48189 2.40556 1.43238 2.41453 1.38452 2.4313L5.39841 7.22797L9.42341 2.40463Z" fill="#828282"/>
<path d="M9.83456 2.86792L5.79012 7.70125C5.68603 7.82542 5.54522 7.89512 5.39845 7.89512C5.25168 7.89512 5.11087 7.82542 5.00678 7.70125L0.998448 2.90459C0.986126 2.95893 0.979592 3.01494 0.979004 3.07125V9.73792C0.979004 9.91473 1.03754 10.0843 1.14172 10.2093C1.24591 10.3343 1.38722 10.4046 1.53456 10.4046H9.31234C9.45968 10.4046 9.60099 10.3343 9.70518 10.2093C9.80936 10.0843 9.86789 9.91473 9.86789 9.73792V3.07125C9.86568 3.0018 9.85444 2.9332 9.83456 2.86792ZM1.91512 9.73792H1.529V9.26125L3.54845 6.85792L3.94012 7.32792L1.91512 9.73792ZM9.30678 9.73792H8.91789L6.89289 7.32792L7.28456 6.85792L9.304 9.26125L9.30678 9.73792Z" fill="#828282"/>
</g>
<defs>
<clipPath id="clip0_0_2152">
<rect width="9.16667" height="11" fill="white" transform="translate(0.442871 0.404541)"/>
</clipPath>
</defs>
</svg>
