<svg width="11" height="13" viewBox="0 0 11 13" fill="none" xmlns="http://www.w3.org/2000/svg">
<path d="M9.17404 12.1013H0.499756V11.0537C0.499756 10.3591 0.785348 9.69292 1.29371 9.20175C1.80206 8.71059 2.49154 8.43465 3.21047 8.43465H6.46333C7.18225 8.43465 7.87173 8.71059 8.38009 9.20175C8.88845 9.69292 9.17404 10.3591 9.17404 11.0537V12.1013ZM4.8369 7.38703C4.40973 7.38703 3.98674 7.30574 3.59208 7.1478C3.19743 6.98985 2.83884 6.75835 2.53678 6.46651C2.23473 6.17467 1.99512 5.8282 1.83165 5.4469C1.66818 5.06559 1.58404 4.6569 1.58404 4.24418C1.58404 3.83145 1.66818 3.42277 1.83165 3.04146C1.99512 2.66015 2.23473 2.31368 2.53678 2.02184C2.83884 1.73 3.19743 1.4985 3.59208 1.34055C3.98674 1.18261 4.40973 1.10132 4.8369 1.10132C5.69961 1.10132 6.52699 1.43244 7.13702 2.02184C7.74705 2.61124 8.08976 3.41064 8.08976 4.24418C8.08976 5.07771 7.74705 5.87711 7.13702 6.46651C6.52699 7.05591 5.69961 7.38703 4.8369 7.38703Z" fill="#828282"/>
</svg>
