<svg 
  width="24" 
  height="25" 
  viewBox="0 0 24 25" 
  fill="none" 
  xmlns="http://www.w3.org/2000/svg"
>
  <path 
    d="M18 4.5H6V6.5H18V4.5Z" 
    fill="#4E4F54"
  />
  <path 
    d="M18 8.5H6V10.5H18V8.5Z" 
    fill="#4E4F54"
  />
  <path 
    d="M6 12.5H14V14.5H6V12.5Z" 
    fill="#4E4F54"
  />
  <path 
    fill-rule="evenodd" 
    clip-rule="evenodd" 
    d="M4 0.5C1.79086 0.5 0 2.29086 0 4.5V14.5C0 16.7091 1.79086 18.5 4 18.5V24.5L10.8866 18.5H20C22.2091 18.5 24 16.7091 24 14.5V4.5C24 2.29086 22.2091 0.5 20 0.5H4ZM2 4.5C2 3.39543 2.89543 2.5 4 2.5H20C21.1046 2.5 22 3.39543 22 4.5V14.5C22 15.6046 21.1046 16.5 20 16.5H10.1134L6 19.9789V16.5H4C2.89543 16.5 2 15.6046 2 14.5V4.5Z" 
    fill="#4E4F54"
  />
</svg>
