<svg width="11" height="13" viewBox="0 0 11 13" fill="none" xmlns="http://www.w3.org/2000/svg">
<path d="M5.22289 9.2042C5.51046 9.2042 5.78625 9.09382 5.98959 8.89735C6.19293 8.70089 6.30717 8.43442 6.30717 8.15658C6.30717 7.87873 6.19293 7.61226 5.98959 7.4158C5.78625 7.21933 5.51046 7.10896 5.22289 7.10896C4.93531 7.10896 4.65952 7.21933 4.45618 7.4158C4.25284 7.61226 4.1386 7.87873 4.1386 8.15658C4.1386 8.43442 4.25284 8.70089 4.45618 8.89735C4.65952 9.09382 4.93531 9.2042 5.22289 9.2042ZM8.47574 4.48991C8.76331 4.48991 9.0391 4.60028 9.24245 4.79675C9.44579 4.99322 9.56003 5.25968 9.56003 5.53753V10.7756C9.56003 11.0535 9.44579 11.3199 9.24245 11.5164C9.0391 11.7129 8.76331 11.8232 8.47574 11.8232H1.97003C1.68246 11.8232 1.40667 11.7129 1.20332 11.5164C0.999979 11.3199 0.885742 11.0535 0.885742 10.7756V5.53753C0.885742 5.25968 0.999979 4.99322 1.20332 4.79675C1.40667 4.60028 1.68246 4.48991 1.97003 4.48991H2.51217V3.44229C2.51217 2.74768 2.79776 2.08151 3.30612 1.59034C3.81448 1.09918 4.50396 0.823242 5.22289 0.823242C5.57886 0.823242 5.93135 0.890986 6.26023 1.02261C6.58911 1.15422 6.88794 1.34714 7.13965 1.59034C7.39136 1.83354 7.59103 2.12227 7.72726 2.44002C7.86348 2.75778 7.9336 3.09835 7.9336 3.44229V4.48991H8.47574ZM5.22289 1.87086C4.79153 1.87086 4.37784 2.03642 4.07283 2.33112C3.76781 2.62582 3.59646 3.02552 3.59646 3.44229V4.48991H6.84931V3.44229C6.84931 3.02552 6.67796 2.62582 6.37294 2.33112C6.06793 2.03642 5.65424 1.87086 5.22289 1.87086Z" fill="#828282"/>
</svg>
